<svg width="828" height="292" viewBox="0 0 828 292" fill="none" xmlns="http://www.w3.org/2000/svg">
<path d="M685 122C690.683 127.602 693.206 133.561 693.304 141.46C693.303 142.284 693.302 143.108 693.301 143.957C693.305 144.819 693.309 145.681 693.314 146.569C693.319 148.388 693.32 150.208 693.316 152.028C693.313 154.793 693.336 157.557 693.361 160.322C693.364 162.096 693.364 163.87 693.363 165.645C693.372 166.462 693.382 167.28 693.391 168.123C693.337 174.927 692.146 180.524 687.562 185.812C680.804 191.582 676.365 192.365 667.453 192.273C660.462 191.72 656.721 188.132 652.262 182.977C648.844 177.622 648.669 172.156 648.629 166.016C648.62 165.16 648.611 164.304 648.602 163.423C648.587 161.617 648.578 159.812 648.574 158.007C648.563 155.272 648.513 152.539 648.463 149.805C648.298 132.132 648.298 132.132 654 125C662.933 116.557 674.559 115.732 685 122Z" fill="#FF9543"/>
<path d="M480 122C485.485 126.798 488.45 131.563 489.201 138.984C489.295 141.134 489.329 143.274 489.336 145.426C489.343 146.213 489.349 147.001 489.356 147.813C489.366 149.471 489.371 151.129 489.371 152.787C489.375 155.295 489.411 157.802 489.449 160.311C489.582 178.976 489.582 178.976 483.25 185.919C477.19 191.597 471.365 192.454 463.234 192.316C457.457 191.751 453.75 189.75 449.688 185.688C445.56 179.114 444.54 174.056 444.566 166.41C444.561 165.507 444.556 164.603 444.551 163.673C444.544 161.771 444.545 159.869 444.554 157.967C444.562 155.074 444.534 152.184 444.502 149.291C444.5 147.435 444.501 145.579 444.504 143.723C444.493 142.867 444.481 142.012 444.47 141.13C444.547 134.365 446.364 129.252 450.641 123.977C459.377 116.639 470.246 115.859 480 122Z" fill="#FF9543"/>
<path d="M142.938 118.688C144.714 118.662 144.714 118.662 146.527 118.637C153.482 119.364 157.248 122.775 161.52 127.961C165.263 133.117 165.815 138.816 165 145C163.177 151.37 160.473 155.314 155 159C150.106 161.68 145.108 161.225 139.688 161.125C138.756 161.116 137.825 161.107 136.865 161.098C134.577 161.074 132.288 161.041 130 161C129.893 171.925 129.893 171.925 135 181C137.987 183.347 141.223 183.437 144.973 183.297C148.629 182.761 150.367 181.572 153 179C154.056 176.406 154.8 173.866 155.457 171.145C156 169 156 169 157 168C159.333 167.959 161.667 167.958 164 168C165.811 173.104 164.143 177.281 162 182C158.619 187.12 154.869 190.279 149 192C141.638 192.971 135.037 192.595 129 188C124.391 183.751 121.435 179.44 120.805 173.012C120.72 170.727 120.697 168.451 120.699 166.164C120.695 165.326 120.691 164.488 120.686 163.624C120.681 161.857 120.68 160.091 120.684 158.324C120.687 155.64 120.664 152.957 120.639 150.273C120.636 148.549 120.636 146.826 120.637 145.102C120.628 144.309 120.618 143.516 120.609 142.699C120.66 136.404 121.834 130.947 125.648 125.758L127.375 124.125L129.086 122.445C133.484 119.124 137.513 118.705 142.938 118.688Z" fill="#FF9543"/>
<path d="M231 91C238 91 238 91 239 92C239.159 94.2899 239.251 96.5844 239.316 98.8789C239.337 99.5656 239.358 100.252 239.379 100.96C239.445 103.161 239.504 105.361 239.562 107.562C239.606 109.051 239.649 110.54 239.693 112.029C239.801 115.686 239.902 119.343 240 123L242.812 121.062C247.491 118.035 251.514 117.325 257 118C263.25 119.82 267.38 122.463 271 128C274.265 134.922 274.41 140.976 274.328 148.559C274.326 149.743 274.324 150.928 274.322 152.149C274.316 154.639 274.302 157.13 274.281 159.62C274.25 163.449 274.24 167.278 274.234 171.107C274.225 173.529 274.215 175.95 274.203 178.371C274.197 180.097 274.197 180.097 274.19 181.859C274.181 182.914 274.171 183.969 274.161 185.056C274.154 185.989 274.147 186.922 274.14 187.884C274 190 274 190 273 191C269.5 191.125 269.5 191.125 266 191C264.319 189.319 264.867 187.238 264.858 184.933C264.851 183.851 264.844 182.769 264.837 181.655C264.833 180.476 264.829 179.297 264.824 178.082C264.801 175.606 264.777 173.13 264.752 170.654C264.717 166.735 264.688 162.816 264.674 158.896C264.659 155.124 264.618 151.354 264.574 147.582C264.576 146.413 264.578 145.244 264.58 144.04C264.486 137.778 264.321 133.708 260 129C257.441 127.72 255.545 127.832 252.688 127.812C251.743 127.798 250.798 127.784 249.824 127.77C246.698 128.025 244.698 128.379 242 130C239.203 135.784 239.667 142.083 239.621 148.363C239.604 149.551 239.587 150.739 239.57 151.962C239.517 155.746 239.476 159.529 239.438 163.312C239.394 167.114 239.347 170.915 239.295 174.716C239.263 177.08 239.236 179.444 239.214 181.807C239.201 182.869 239.187 183.931 239.174 185.025C239.164 185.964 239.155 186.903 239.145 187.87C239 190 239 190 238 191H231V91Z" fill="#FF9543"/>
<path d="M677 127C681.259 129.086 682.779 131.835 684.369 136.244C685.676 141.954 685.479 147.86 685.446 153.69C685.438 155.995 685.466 158.297 685.498 160.602C685.534 168.233 685.467 174.502 681 181C677.871 183.945 675.155 184.215 671 184.375C666.877 184.228 664.15 183.864 661 181C657.791 175.897 657.546 171.712 657.566 165.875C657.561 165.01 657.556 164.145 657.551 163.253C657.544 161.431 657.545 159.609 657.554 157.787C657.562 155.008 657.534 152.232 657.502 149.453C657.5 147.677 657.501 145.901 657.504 144.125C657.487 142.887 657.487 142.887 657.47 141.625C657.534 136.29 658.44 133.218 662 129C666.679 125.88 671.523 126.422 677 127Z" fill="#F48F4B" stroke="white" stroke-width="4"/>
<path d="M472 127C475.563 128.336 476.604 129.363 478.6 132.574C480.323 136.79 480.433 140.185 480.398 144.687C480.401 145.508 480.404 146.329 480.407 147.175C480.409 148.903 480.404 150.63 480.391 152.358C480.375 154.992 480.391 157.624 480.41 160.258C480.408 161.943 480.404 163.628 480.398 165.312C480.408 166.485 480.408 166.485 480.417 167.68C480.345 173.295 479.172 177.376 475.5 181.812C472.156 184.46 468.353 184.34 464.285 184.273C460.618 183.835 458.678 182.486 456 180C453.239 174.726 452.553 170.551 452.602 164.652C452.597 163.49 452.597 163.49 452.593 162.304C452.591 160.676 452.596 159.048 452.609 157.421C452.625 154.941 452.609 152.462 452.59 149.982C452.592 148.393 452.596 146.804 452.602 145.215C452.595 144.48 452.589 143.746 452.583 142.989C452.663 137.062 454.206 133.13 458 128.625C462.581 126.143 466.902 126.378 472 127Z" fill="#F48E4A" stroke="white" stroke-width="4"/>
<path d="M425 121C430.331 125.753 433.703 130.539 434.188 137.812C434 140 434 140 433 141C430.667 141.041 428.333 141.042 426 141C425.758 140.313 425.515 139.626 425.266 138.918C424.93 138.017 424.595 137.116 424.25 136.187C423.925 135.294 423.6 134.401 423.266 133.48C421.823 130.652 420.776 129.519 418 128C412.852 127.148 408.383 127.17 403.875 129.875C401.299 132.795 400.758 134.418 400.875 138.25C401.255 141.05 401.587 142.55 403.512 144.645C407.12 147.14 410.998 149.008 414.945 150.898C430.389 158.302 430.389 158.302 434.375 167C435.668 173.204 435.297 177.62 432.27 183.141C429.2 187.636 425.156 190.313 420 192C412.606 192.839 405.729 193.137 399.613 188.488C394.331 183.615 391.231 179.075 390.812 171.688C391 169 391 169 392 168C394.333 167.959 396.667 167.958 399 168C399.255 169.013 399.255 169.013 399.516 170.047C401.288 176.901 401.288 176.901 406 182C408.573 183.287 410.502 183.168 413.375 183.188C414.81 183.209 414.81 183.209 416.273 183.23C419.061 182.995 420.653 182.482 423 181C425.308 178 425.299 174.802 425.461 171.098C424.739 167.811 423.404 166.371 421 164C417.998 162.281 414.865 160.923 411.688 159.562C404.218 156.353 397.906 153.031 393.062 146.312C391.344 140.954 390.9 135.326 392.691 129.91C395.446 124.644 399.477 121.177 404.812 118.687C411.783 117.184 418.765 117.186 425 121Z" fill="#FF9543"/>
<path d="M741 122C745.07 125.74 748.733 130.027 749.24 135.683C749.234 137.215 749.234 137.215 749.227 138.778C749.227 139.939 749.227 141.1 749.227 142.296C749.216 143.544 749.206 144.792 749.195 146.078C749.192 147.36 749.19 148.642 749.187 149.962C749.179 153.362 749.159 156.762 749.137 160.161C749.117 163.634 749.108 167.106 749.098 170.578C749.076 177.385 749.042 184.193 749 191C746.667 191.042 744.333 191.041 742 191C740.333 189.333 740.858 187.316 740.842 185.025C740.827 183.432 740.827 183.432 740.811 181.807C740.804 180.65 740.797 179.493 740.789 178.301C740.761 175.87 740.732 173.44 740.703 171.01C740.662 167.163 740.625 163.316 740.599 159.469C740.571 155.767 740.525 152.065 740.477 148.363C740.473 147.216 740.47 146.069 740.467 144.887C740.371 137.013 740.371 137.013 737 130C732.54 127.027 728.229 127.38 723 128C718.799 130.315 717.482 132.548 716 137C715.678 139.683 715.678 139.683 715.681 142.525C715.661 143.605 715.641 144.686 715.621 145.8C715.604 147.533 715.604 147.533 715.586 149.301C715.567 150.492 715.547 151.684 715.527 152.911C715.468 156.712 715.421 160.512 715.375 164.312C715.337 166.891 715.298 169.47 715.258 172.049C715.162 178.366 715.077 184.683 715 191C712.667 191.042 710.333 191.041 708 191C706.311 189.311 706.847 187.188 706.823 184.873C706.81 183.778 706.797 182.682 706.784 181.554C706.777 180.359 706.769 179.164 706.762 177.934C706.754 176.711 706.746 175.488 706.737 174.229C706.723 171.632 706.713 169.035 706.705 166.438C706.692 162.479 706.644 158.52 706.6 154.561C706.589 152.039 706.581 149.518 706.574 146.996C706.557 145.816 706.539 144.635 706.521 143.419C706.542 135.559 707.499 130.14 712.711 123.977C721.608 116.75 731.213 115.795 741 122Z" fill="#FF9543"/>
<path d="M529 120H537C537.006 120.663 537.012 121.326 537.018 122.01C537.082 128.921 537.166 135.831 537.262 142.742C537.296 145.32 537.324 147.898 537.346 150.476C537.38 154.185 537.432 157.893 537.488 161.602C537.495 162.752 537.501 163.902 537.508 165.087C537.63 171.778 538.081 176.632 542.625 181.875C546.373 183.65 549.932 183.517 554 183C557.66 181.648 558.693 180.547 560.601 177.146C562.753 171.86 562.48 166.349 562.512 160.723C562.53 159.556 562.548 158.39 562.566 157.188C562.62 153.479 562.654 149.771 562.687 146.062C562.721 143.541 562.755 141.02 562.791 138.498C562.876 132.332 562.944 126.166 563 120H571C571.116 127.276 571.205 134.552 571.259 141.829C571.285 145.209 571.32 148.588 571.377 151.968C571.438 155.863 571.466 159.757 571.488 163.652C571.514 164.853 571.54 166.053 571.566 167.29C571.569 174.646 570.676 180.141 566 186C559.886 191.581 554.333 192.42 546.301 192.34C540.632 191.756 537.139 189.45 533.441 185.215C529.946 180.551 528.874 177.141 528.886 171.427C528.887 170.286 528.887 169.145 528.887 167.97C528.892 166.738 528.897 165.507 528.902 164.238C528.904 162.977 528.905 161.716 528.907 160.417C528.911 157.068 528.92 153.72 528.931 150.371C528.942 146.952 528.946 143.534 528.951 140.115C528.962 133.41 528.979 126.705 529 120Z" fill="#FF9543"/>
<path d="M211 122C215.686 126.034 218.714 131.717 219.25 137.875C219 140 219 140 218 141C215.667 141.041 213.333 141.042 211 141C210.841 140.397 210.683 139.793 210.52 139.172C209.43 135.439 208.41 132.525 206 129.437C201.389 127.228 197.01 127.105 192 128C189.103 130.202 187.607 131.786 186 135C185.889 137.919 185.836 140.814 185.832 143.734C185.829 144.605 185.825 145.476 185.822 146.373C185.817 148.219 185.815 150.065 185.815 151.911C185.813 154.725 185.794 157.538 185.775 160.352C185.772 162.146 185.77 163.94 185.77 165.734C185.762 166.572 185.755 167.41 185.748 168.273C185.766 172.885 186.092 176.708 188 181C192.105 183.737 197.23 183.546 202 183C205.596 181.593 206.7 180.501 208.688 177.187C209.936 174.156 211.031 171.131 212 168H219C220.811 173.104 219.143 177.281 217 182C213.615 187.125 209.887 190.311 204 192C196.752 192.969 190.561 192.922 184.578 188.41C179.289 183.684 176.473 178.169 175.822 171.061C175.576 166.359 175.573 161.659 175.609 156.952C175.625 154.44 175.609 151.929 175.59 149.416C175.592 147.797 175.596 146.178 175.602 144.559C175.595 143.819 175.589 143.079 175.583 142.317C175.681 134.972 177.68 128.32 183 123C192.165 116.661 201.472 116.115 211 122Z" fill="#FF9543"/>
<path d="M371.664 120.602C376.63 123.574 379.112 128.031 381.438 133.188C382.035 136.173 381.853 138.098 381 141H374C373.758 140.313 373.515 139.626 373.266 138.918C372.93 138.017 372.595 137.116 372.25 136.188C371.925 135.294 371.6 134.401 371.266 133.48C369.823 130.652 368.776 129.519 366 128C360.961 127.166 356.44 127.207 351.937 129.688C347.966 134.427 347.682 139.083 347.664 145.082C347.654 146.242 347.654 146.242 347.644 147.424C347.634 149.056 347.629 150.687 347.629 152.319C347.625 154.794 347.589 157.269 347.551 159.744C347.545 161.336 347.541 162.928 347.539 164.52C347.525 165.25 347.51 165.98 347.496 166.733C347.542 172.07 348.726 176.684 352 181C354.9 182.746 357.058 183.295 360.437 183.312C361.549 183.338 361.549 183.338 362.684 183.363C365.792 182.876 367.516 181.94 370 180C371.665 177.088 371.665 177.088 372.812 173.812C373.231 172.726 373.65 171.639 374.082 170.52C374.385 169.688 374.688 168.857 375 168H382C382.454 174.349 381.766 178.763 378 184C373.821 188.355 370.311 191.77 364.074 192.203C356.225 192.312 351.537 191.948 345.375 186.812C339.988 180.433 338.393 174.751 338.504 166.496C338.502 165.614 338.501 164.732 338.5 163.823C338.501 161.97 338.513 160.117 338.533 158.264C338.562 155.442 338.554 152.621 338.541 149.799C338.547 147.99 338.556 146.18 338.566 144.371C338.563 143.535 338.561 142.7 338.558 141.839C338.673 134.626 340.483 128.892 345.426 123.355C353.324 116.555 362.522 116.635 371.664 120.602Z" fill="#FF9543"/>
<path d="M591 100H599V120H613C613 127 613 127 612 128C609.814 128.073 607.625 128.084 605.438 128.062C603.641 128.049 603.641 128.049 601.809 128.035C600.882 128.024 599.955 128.012 599 128C599.069 133.978 599.157 139.955 599.262 145.932C599.296 147.963 599.324 149.994 599.346 152.025C599.38 154.954 599.433 157.883 599.488 160.812C599.495 161.712 599.501 162.611 599.508 163.538C599.653 169.855 600.333 176.047 604.75 180.938C607.771 182.364 610.7 182.626 614 183C615 184 615 184 615.125 187C615 190 615 190 614 191C609.06 191.568 605.112 191.556 600.625 189.312C595.437 184.742 591.491 179.592 590.739 172.56C590.654 169.714 590.663 166.883 590.707 164.035C590.711 163.002 590.716 161.969 590.72 160.904C590.737 157.623 590.774 154.343 590.812 151.062C590.828 148.83 590.841 146.598 590.854 144.365C590.886 138.91 590.938 133.455 591 128H581V120H591V100ZM89 100H97V120L103.438 119.938C105.625 119.916 107.814 119.927 110 120C111 121 111 121 111.125 124C111 127 111 127 110 128C107.814 128.073 105.625 128.084 103.438 128.062C101.641 128.049 101.641 128.049 99.8086 128.035C98.8818 128.024 97.9549 128.012 97 128C97.0691 134.12 97.1572 140.24 97.2625 146.359C97.2956 148.439 97.3237 150.518 97.3464 152.598C97.3802 155.597 97.4325 158.595 97.4883 161.594C97.4947 162.515 97.5011 163.436 97.5076 164.385C97.6391 170.232 98.554 174.666 101 180C104.115 182.559 108.079 182.548 112 183V191C106.316 191.412 101.421 191.633 96.5352 188.41C92.5365 184.737 89.1824 179.311 88.8797 173.817C88.8831 172.548 88.8831 172.548 88.8865 171.253C88.8866 170.292 88.8866 169.332 88.8867 168.342C88.8919 167.307 88.897 166.273 88.9023 165.207C88.9038 164.146 88.9052 163.085 88.9066 161.991C88.9122 158.598 88.9248 155.205 88.9375 151.812C88.9425 149.514 88.9471 147.215 88.9512 144.916C88.9622 139.277 88.9789 133.639 89 128C88.2897 128.012 87.5795 128.023 86.8477 128.035C85.9286 128.044 85.0095 128.053 84.0625 128.062C83.146 128.074 82.2295 128.086 81.2852 128.098C79 128 79 128 78 127C77.875 124 77.875 124 78 121C80.6034 118.397 85.3182 120 89 120V100Z" fill="#FF9543"/>
<path d="M320.5 90.875C324 91 324 91 325 92C325.101 95.0387 325.136 98.0546 325.129 101.094C325.131 102.048 325.133 103.003 325.135 103.986C325.139 107.157 325.136 110.329 325.133 113.5C325.133 115.693 325.134 117.887 325.136 120.08C325.137 124.684 325.135 129.287 325.13 133.891C325.125 139.806 325.128 145.721 325.134 151.637C325.138 156.168 325.136 160.699 325.134 165.23C325.133 167.412 325.134 169.594 325.136 171.776C325.139 174.819 325.135 177.863 325.129 180.906C325.131 181.817 325.133 182.729 325.136 183.667C325.114 189.886 325.114 189.886 324 191C320.5 191.125 320.5 191.125 317 191C315.081 189.081 315.873 186.222 315.864 183.667C315.867 182.756 315.869 181.845 315.871 180.906C315.869 179.952 315.867 178.997 315.865 178.014C315.861 174.843 315.864 171.671 315.867 168.5C315.867 166.307 315.866 164.113 315.864 161.92C315.863 157.316 315.865 152.713 315.87 148.109C315.875 142.194 315.872 136.279 315.866 130.363C315.862 125.832 315.864 121.301 315.866 116.77C315.867 114.588 315.866 112.406 315.864 110.224C315.861 107.181 315.865 104.137 315.871 101.094C315.869 100.183 315.867 99.2713 315.864 98.3325C315.889 91.0397 315.889 91.0397 320.5 90.875Z" fill="#FF9543"/>
<path d="M294.5 90.875C298 91 298 91 299 92C299.101 95.0387 299.136 98.0546 299.129 101.094C299.131 102.048 299.133 103.003 299.135 103.986C299.139 107.157 299.136 110.329 299.133 113.5C299.133 115.693 299.134 117.887 299.136 120.08C299.137 124.684 299.135 129.287 299.13 133.891C299.125 139.806 299.128 145.721 299.134 151.637C299.138 156.168 299.136 160.699 299.134 165.23C299.133 167.412 299.134 169.594 299.136 171.776C299.139 174.819 299.135 177.863 299.129 180.906C299.131 181.817 299.133 182.729 299.136 183.667C299.114 189.886 299.114 189.886 298 191C294.5 191.125 294.5 191.125 291 191C289.081 189.081 289.873 186.222 289.864 183.667C289.867 182.756 289.869 181.845 289.871 180.906C289.869 179.952 289.867 178.997 289.865 178.014C289.861 174.843 289.864 171.671 289.867 168.5C289.867 166.307 289.866 164.113 289.864 161.92C289.863 157.316 289.865 152.713 289.87 148.109C289.875 142.194 289.872 136.279 289.866 130.363C289.862 125.832 289.864 121.301 289.866 116.77C289.867 114.588 289.866 112.406 289.864 110.224C289.861 107.181 289.865 104.137 289.871 101.094C289.869 100.183 289.867 99.2713 289.864 98.3325C289.889 91.0397 289.889 91.0397 294.5 90.875Z" fill="#FF9543"/>
<path d="M512 91V191C505 191 505 191 504 190C503.899 186.961 503.864 183.945 503.871 180.906C503.869 179.952 503.867 178.997 503.865 178.014C503.861 174.843 503.864 171.671 503.867 168.5C503.867 166.307 503.866 164.113 503.864 161.92C503.863 157.316 503.865 152.713 503.87 148.109C503.875 142.194 503.872 136.279 503.866 130.363C503.862 125.832 503.864 121.301 503.866 116.77C503.867 114.588 503.866 112.406 503.864 110.224C503.861 107.181 503.865 104.137 503.871 101.094C503.869 100.183 503.867 99.2713 503.864 98.3325C503.89 91 503.89 91 512 91Z" fill="#FF9543"/>
<path d="M151.5 128.75C154.608 131.547 155.803 133.463 156.336 137.621C156.441 145.227 156.441 145.227 154.25 149.063C150.817 152.019 148.218 153.26 143.672 153.195C142.873 153.189 142.073 153.182 141.25 153.176C140.425 153.159 139.6 153.142 138.75 153.125C137.91 153.116 137.069 153.107 136.203 153.098C134.135 153.074 132.068 153.038 130 153C129.891 150.124 129.812 147.252 129.75 144.375C129.716 143.567 129.683 142.759 129.648 141.926C129.56 136.456 130.242 133.27 134 129C139.219 125.374 146.069 126.034 151.5 128.75Z" fill="#FF9543" stroke="white" stroke-width="4"/>
<path d="M627 120H635C635.023 129.11 635.041 138.219 635.052 147.329C635.057 151.558 635.064 155.788 635.075 160.017C635.086 164.096 635.092 168.174 635.095 172.252C635.097 173.812 635.1 175.371 635.106 176.931C635.113 179.107 635.114 181.284 635.114 183.461C635.116 184.702 635.118 185.943 635.12 187.222C635 190 635 190 634 191H627V120Z" fill="#FF9543"/>
<path d="M634 100C636 102 636 102 636.312 104.937C636 108 636 108 634.875 109.937C632.019 111.556 630.077 110.851 627 110L625 108C625.25 104.437 625.25 104.437 626 101C628.763 99.6187 630.947 99.8092 634 100Z" fill="#FF9543"/>
</svg>
